HIERARCHY
ROOT root
{
	OFFSET 0.00 0.00 0.00
	CHANNELS 6 Xposition Yposition Zposition Zrotation Xrotation Yrotation
	JOINT lowerback
	{
		OFFSET 0 0 0
		CHANNELS 6 Xposition Yposition Zposition Zrotation Xrotation Yrotation
		JOINT upperback
		{
			OFFSET -0.214371 12.3768 -1.12219
			CHANNELS 6 Xposition Yposition Zposition Zrotation Xrotation Yrotation
			JOINT thorax
			{
				OFFSET -0.00137213 12.3873 0.296195
				CHANNELS 6 Xposition Yposition Zposition Zrotation Xrotation Yrotation
				JOINT lowerneck
				{
					OFFSET 0.0883157 12.5016 0.82912
					CHANNELS 6 Xposition Yposition Zposition Zrotation Xrotation Yrotation
					JOINT upperneck
					{
						OFFSET -1 10.1794 0.943522
						CHANNELS 6 Xposition Yposition Zposition Zrotation Xrotation Yrotation
						JOINT head
						{
							OFFSET 0.667525 10.2797 -1.57149
							CHANNELS 6 Xposition Yposition Zposition Zrotation Xrotation Yrotation
							End Site
							{
								OFFSET 0 0 0
							}
						}
					}
				}
				JOINT lclavicle
				{
					OFFSET 0.0883157 12.5016 0.82912
					CHANNELS 6 Xposition Yposition Zposition Zrotation Xrotation Yrotation
					JOINT lhumerus
					{
						OFFSET 20.61 4.45006 1.43784
						CHANNELS 6 Xposition Yposition Zposition Zrotation Xrotation Yrotation
						JOINT lradius
						{
							OFFSET 0 -30.3438 0
							CHANNELS 6 Xposition Yposition Zposition Zrotation Xrotation Yrotation
							JOINT lwrist
							{
								OFFSET 0 -18.964 0
								CHANNELS 6 Xposition Yposition Zposition Zrotation Xrotation Yrotation
								JOINT lhand
								{
									OFFSET 0 -9.48199 0
									CHANNELS 6 Xposition Yposition Zposition Zrotation Xrotation Yrotation
									JOINT lfingers
									{
										OFFSET 0 -3.17138 0
										CHANNELS 6 Xposition Yposition Zposition Zrotation Xrotation Yrotation
										End Site
										{
											OFFSET 0 -2.55685 0
										}
									}
								}
								JOINT lthumb
								{
									OFFSET 0 -9.48199 0
									CHANNELS 6 Xposition Yposition Zposition Zrotation Xrotation Yrotation
									End Site
									{
										OFFSET 0 -3.67114 0
									}
								}
							}
						}
					}
				}
				JOINT rclavicle
				{
					OFFSET 0.0883157 12.5016 0.82912
					CHANNELS 6 Xposition Yposition Zposition Zrotation Xrotation Yrotation
					JOINT rhumerus
					{
						OFFSET -20.61 4.45 1.44
						CHANNELS 6 Xposition Yposition Zposition Zrotation Xrotation Yrotation
						JOINT rradius
						{
							OFFSET 0 -29.5102 0
							CHANNELS 6 Xposition Yposition Zposition Zrotation Xrotation Yrotation
							JOINT rwrist
							{
								OFFSET 0 -19.2342 0
								CHANNELS 6 Xposition Yposition Zposition Zrotation Xrotation Yrotation
								JOINT rhand
								{
									OFFSET 0 -9.61712 0
									CHANNELS 6 Xposition Yposition Zposition Zrotation Xrotation Yrotation
									JOINT rfingers
									{
										OFFSET 0 -3.29215 0
										CHANNELS 6 Xposition Yposition Zposition Zrotation Xrotation Yrotation
										End Site
										{
											OFFSET 0 -2.557 0
										}
									}
								}
								JOINT rthumb
								{
									OFFSET 0 -9.61712 0
									CHANNELS 6 Xposition Yposition Zposition Zrotation Xrotation Yrotation
									End Site
									{
										OFFSET 0 -3.671 0
									}
								}
							}
						}
					}
				}
			}
		}
	}
	JOINT rfemur
	{
		OFFSET -8.46272 -9.62775 4.76248
		CHANNELS 6 Xposition Yposition Zposition Zrotation Xrotation Yrotation
		JOINT rtibia
		{
			OFFSET 1.00552e-005 -38.0331 0
			CHANNELS 6 Xposition Yposition Zposition Zrotation Xrotation Yrotation
			JOINT rfoot
			{
				OFFSET 1.14428e-005 -43.2815 0
				CHANNELS 6 Xposition Yposition Zposition Zrotation Xrotation Yrotation
				JOINT rtoes
				{
					OFFSET 0 -14.1868 -3.08763
					CHANNELS 6 Xposition Yposition Zposition Zrotation Xrotation Yrotation
					End Site
					{
						OFFSET 0 -7.27332 0
					}
				}
			}
		}
	}
	JOINT lfemur
	{
		OFFSET 9.10607 -9.62778 4.76249
		CHANNELS 6 Xposition Yposition Zposition Zrotation Xrotation Yrotation
		JOINT ltibia
		{
			OFFSET -1.01399e-005 -38.3535 0
			CHANNELS 6 Xposition Yposition Zposition Zrotation Xrotation Yrotation
			JOINT lfoot
			{
				OFFSET -1.12937e-005 -42.7176 0
				CHANNELS 6 Xposition Yposition Zposition Zrotation Xrotation Yrotation
				JOINT ltoes
				{
					OFFSET 0 -13.9965 -2.83857
					CHANNELS 6 Xposition Yposition Zposition Zrotation Xrotation Yrotation
					End Site
					{
						OFFSET 0 -7.16348 0
					}
				}
			}
		}
	}
}
MOTION
Frames: 9
Frame Time: 0.00833333
-3.31055	100.314	50.9374	-0.540495	2.71202	0.643106	0 0 0 1.90601	-5.24149	-1.3174	-0.214371 12.3768 -1.12219 -0.868797	1.50868	-1.85382	-0.00137213 12.3873 0.296195 -2.18624	4.40744	-0.85403	0.0883157 12.5016 0.82912 -3.75294	-11.1596	-3.16197	-1 10.1794 0.943522 10.0733	8.93684	-4.81872	0.667525 10.2797 -1.57149 3.20802	4.82965	-1.87771	0.0883157 12.5016 0.82912 -15	0	-0	20.61 4.45006 1.43784 10.2369	-2.32632	-166.339	0 -30.3438 0 -0	21.6713	-0	0 -18.964 0 1.30773e-014	-3.53611e-015	-120.262	0 -9.48199 0 1.22245	4.37968	-2.58917e-014	0 -3.17138 0 -0	7.12502	-0	0 -9.48199 0 25	15	-1.36605e-015	0.0883157 12.5016 0.82912 15	0	-0	-20.61 4.45 1.44 -11.4348	1.39397	173.034	0 -29.5102 0 -0	26.4246	-0	0 -19.2342 0 9.73458e-016	-3.56557e-015	120.541	0 -9.61712 0 1.22	4.38	-0	0 -3.29215 0 -0	7.12502	-0	0 -9.61712 0 25	15	-7.97034e-015	-8.46272 -9.62775 4.76248 4.50462	-19.7979	-2.61383	1.00552e-005 -38.0331 0 -0	29.4875	-0	1.14428e-005 -43.2815 0 -14.9812	-72.2498	-15.6939	0 -14.1868 -3.08763 -0	-22.0285	-0	9.10607 -9.62778 4.76249 3.13507	6.25938	8.57475	-1.01399e-005 -38.3535 0 -0	42.0906	-0	-1.12937e-005 -42.7176 0 -5.42581	-42.378	-8.02033	0 -13.9965 -2.83857 -0	-41.9269	-0
-3.39989	100.327	51.4608	-0.697158	2.66051	0.766754	0 0 0 2.0669	-5.21275	-1.30649	-0.214371 12.3768 -1.12219 -0.828819	1.52429	-1.85173	-0.00137213 12.3873 0.296195 -2.23437	4.40407	-0.849089	0.0883157 12.5016 0.82912 -3.7961	-11.1407	-3.19928	-1 10.1794 0.943522 10.1228	8.93773	-4.8686	0.667525 10.2797 -1.57149 3.22539	4.83176	-1.90103	0.0883157 12.5016 0.82912 -15	0	-0	20.61 4.45006 1.43784 10.2495	-2.24746	-166.274	0 -30.3438 0 -0	21.7483	-0	0 -18.964 0 1.30806e-014	-3.53039e-015	-120.208	0 -9.48199 0 1.22245	4.37968	-2.58917e-014	0 -3.17138 0 -0	7.12502	-0	0 -9.48199 0 25	15	-1.36605e-015	0.0883157 12.5016 0.82912 15	0	-0	-20.61 4.45 1.44 -11.5221	1.20402	173.424	0 -29.5102 0 -0	26.7716	-0	0 -19.2342 0 9.58143e-016	-3.53949e-015	120.294	0 -9.61712 0 1.22	4.38	-0	0 -3.29215 0 -0	7.12502	-0	0 -9.61712 0 25	15	-7.97034e-015	-8.46272 -9.62775 4.76248 4.71413	-19.3224	-2.65988	1.00552e-005 -38.0331 0 -0	29.3624	-0	1.14428e-005 -43.2815 0 -15.4648	-72.4772	-16.1788	0 -14.1868 -3.08763 -0	-22.0958	-0	9.10607 -9.62778 4.76249 3.5742	5.27955	8.32375	-1.01399e-005 -38.3535 0 -0	43.8149	-0	-1.12937e-005 -42.7176 0 -5.10331	-42.3409	-7.55195	0 -13.9965 -2.83857 -0	-41.905	-0
-3.48581	100.335	51.9713	-0.855917	2.60839	0.88595	0 0 0 2.23358	-5.17602	-1.29008	-0.214371 12.3768 -1.12219 -0.789363	1.53895	-1.84241	-0.00137213 12.3873 0.296195 -2.28517	4.39545	-0.840495	0.0883157 12.5016 0.82912 -3.84164	-11.119	-3.23945	-1 10.1794 0.943522 10.1737	8.94332	-4.92256	0.667525 10.2797 -1.57149 3.24312	4.83562	-1.92633	0.0883157 12.5016 0.82912 -15	0	-0	20.61 4.45006 1.43784 10.272	-2.19212	-166.247	0 -30.3438 0 -0	21.8179	-0	0 -18.964 0 1.30844e-014	-3.52383e-015	-120.146	0 -9.48199 0 1.22245	4.37968	-2.58917e-014	0 -3.17138 0 -0	7.12502	-0	0 -9.48199 0 25	15	-1.36605e-015	0.0883157 12.5016 0.82912 15	0	-0	-20.61 4.45 1.44 -11.6096	1.00878	173.793	0 -29.5102 0 -0	27.1046	-0	0 -19.2342 0 9.42573e-016	-3.5127e-015	120.041	0 -9.61712 0 1.22	4.38	-0	0 -3.29215 0 -0	7.12502	-0	0 -9.61712 0 25	15	-7.97034e-015	-8.46272 -9.62775 4.76248 4.93369	-18.8585	-2.6916	1.00552e-005 -38.0331 0 -0	29.2422	-0	1.14428e-005 -43.2815 0 -15.9568	-72.6958	-16.6721	0 -14.1868 -3.08763 -0	-22.1512	-0	9.10607 -9.62778 4.76249 3.99201	4.3074	8.0679	-1.01399e-005 -38.3535 0 -0	45.4504	-0	-1.12937e-005 -42.7176 0 -4.85391	-42.8395	-7.11799	0 -13.9965 -2.83857 -0	-42.6545	-0
-3.56834	100.337	52.4697	-1.01603	2.55249	0.993977	0 0 0 2.4047	-5.12731	-1.26596	-0.214371 12.3768 -1.12219 -0.750821	1.55367	-1.82265	-0.00137213 12.3873 0.296195 -2.33783	4.38066	-0.826695	0.0883157 12.5016 0.82912 -3.88832	-11.0988	-3.2828	-1 10.1794 0.943522 10.2276	8.95501	-4.98153	0.667525 10.2797 -1.57149 3.26132	4.84204	-1.95373	0.0883157 12.5016 0.82912 -15	0	-0	20.61 4.45006 1.43784 10.3042	-2.15813	-166.26	0 -30.3438 0 -0	21.8848	-0	0 -18.964 0 1.30888e-014	-3.51631e-015	-120.075	0 -9.48199 0 1.22245	4.37968	-2.58917e-014	0 -3.17138 0 -0	7.12502	-0	0 -9.48199 0 25	15	-1.36605e-015	0.0883157 12.5016 0.82912 15	0	-0	-20.61 4.45 1.44 -11.6979	0.807172	174.147	0 -29.5102 0 -0	27.427	-0	0 -19.2342 0 9.26939e-016	-3.48553e-015	119.785	0 -9.61712 0 1.22	4.38	-0	0 -3.29215 0 -0	7.12502	-0	0 -9.61712 0 25	15	-7.97034e-015	-8.46272 -9.62775 4.76248 5.16396	-18.4023	-2.7122	1.00552e-005 -38.0331 0 -0	29.121	-0	1.14428e-005 -43.2815 0 -16.4701	-72.9031	-17.1876	0 -14.1868 -3.08763 -0	-22.1999	-0	9.10607 -9.62778 4.76249 4.39151	3.33678	7.79649	-1.01399e-005 -38.3535 0 -0	47.0098	-0	-1.12937e-005 -42.7176 0 -4.62783	-43.7531	-6.67524	0 -13.9965 -2.83857 -0	-44.0102	-0
-3.64748	100.335	52.956	-1.17112	2.49395	1.08852	0 0 0 2.57323	-5.07509	-1.23556	-0.214371 12.3768 -1.12219 -0.713575	1.57449	-1.7941	-0.00137213 12.3873 0.296195 -2.38956	4.3709	-0.808439	0.0883157 12.5016 0.82912 -3.94046	-11.0862	-3.32763	-1 10.1794 0.943522 10.2871	8.966	-5.04215	0.667525 10.2797 -1.57149 3.28187	4.84997	-1.98157	0.0883157 12.5016 0.82912 -15	0	-0	20.61 4.45006 1.43784 10.3423	-2.13604	-166.289	0 -30.3438 0 -0	21.9535	-0	0 -18.964 0 1.30928e-014	-3.50931e-015	-120.009	0 -9.48199 0 1.22245	4.37968	-2.58917e-014	0 -3.17138 0 -0	7.12502	-0	0 -9.48199 0 25	15	-1.36605e-015	0.0883157 12.5016 0.82912 15	0	-0	-20.61 4.45 1.44 -11.7859	0.599714	174.494	0 -29.5102 0 -0	27.7299	-0	0 -19.2342 0 9.11185e-016	-3.45786e-015	119.525	0 -9.61712 0 1.22	4.38	-0	0 -3.29215 0 -0	7.12502	-0	0 -9.61712 0 25	15	-7.97034e-015	-8.46272 -9.62775 4.76248 5.3925	-17.9565	-2.7262	1.00552e-005 -38.0331 0 -0	29.0082	-0	1.14428e-005 -43.2815 0 -16.9974	-73.1059	-17.717	0 -14.1868 -3.08763 -0	-22.2356	-0	9.10607 -9.62778 4.76249 4.76377	2.37554	7.51956	-1.01399e-005 -38.3535 0 -0	48.4611	-0	-1.12937e-005 -42.7176 0 -4.45153	-44.8968	-6.29317	0 -13.9965 -2.83857 -0	-45.562	-0
-3.72352	100.329	53.4314	-1.31686	2.43409	1.16755	0 0 0 2.73472	-5.01519	-1.19946	-0.214371 12.3768 -1.12219 -0.678766	1.59432	-1.75694	-0.00137213 12.3873 0.296195 -2.43867	4.3566	-0.786162	0.0883157 12.5016 0.82912 -3.99392	-11.0746	-3.37557	-1 10.1794 0.943522 10.3429	8.98569	-5.1071	0.667525 10.2797 -1.57149 3.30087	4.86099	-2.01156	0.0883157 12.5016 0.82912 -15	0	-0	20.61 4.45006 1.43784 10.3826	-2.1164	-166.307	0 -30.3438 0 -0	22.0287	-0	0 -18.964 0 1.30955e-014	-3.50464e-015	-119.965	0 -9.48199 0 1.22245	4.37968	-2.58917e-014	0 -3.17138 0 -0	7.12502	-0	0 -9.48199 0 25	15	-1.36605e-015	0.0883157 12.5016 0.82912 15	0	-0	-20.61 4.45 1.44 -11.8725	0.386913	174.838	0 -29.5102 0 -0	28.0042	-0	0 -19.2342 0 8.95257e-016	-3.42958e-015	119.26	0 -9.61712 0 1.22	4.38	-0	0 -3.29215 0 -0	7.12502	-0	0 -9.61712 0 25	15	-7.97034e-015	-8.46272 -9.62775 4.76248 5.60702	-17.5233	-2.73805	1.00552e-005 -38.0331 0 -0	28.9129	-0	1.14428e-005 -43.2815 0 -17.5296	-73.3123	-18.2502	0 -14.1868 -3.08763 -0	-22.2522	-0	9.10607 -9.62778 4.76249 5.10066	1.43171	7.24703	-1.01399e-005 -38.3535 0 -0	49.7726	-0	-1.12937e-005 -42.7176 0 -4.36754	-46.0861	-6.05108	0 -13.9965 -2.83857 -0	-46.8998	-0
-3.79799	100.319	53.8968	-1.45263	2.37113	1.23359	0 0 0 2.88685	-4.94799	-1.15694	-0.214371 12.3768 -1.12219 -0.649003	1.61482	-1.70997	-0.00137213 12.3873 0.296195 -2.48653	4.3398	-0.759247	0.0883157 12.5016 0.82912 -4.04873	-11.0557	-3.42384	-1 10.1794 0.943522 10.4077	9.00096	-5.17315	0.667525 10.2797 -1.57149 3.32296	4.86986	-2.04189	0.0883157 12.5016 0.82912 -15	0	-0	20.61 4.45006 1.43784 10.4239	-2.09868	-166.313	0 -30.3438 0 -0	22.1114	-0	0 -18.964 0 1.30961e-014	-3.50358e-015	-119.955	0 -9.48199 0 1.22245	4.37968	-2.58917e-014	0 -3.17138 0 -0	7.12502	-0	0 -9.48199 0 25	15	-1.36605e-015	0.0883157 12.5016 0.82912 15	0	-0	-20.61 4.45 1.44 -11.9592	0.171573	175.188	0 -29.5102 0 -0	28.2513	-0	0 -19.2342 0 8.78095e-016	-3.39877e-015	118.972	0 -9.61712 0 1.22	4.38	-0	0 -3.29215 0 -0	7.12502	-0	0 -9.61712 0 25	15	-7.97034e-015	-8.46272 -9.62775 4.76248 5.80593	-17.1016	-2.74859	1.00552e-005 -38.0331 0 -0	28.8332	-0	1.14428e-005 -43.2815 0 -18.062	-73.5225	-18.7823	0 -14.1868 -3.08763 -0	-22.2432	-0	9.10607 -9.62778 4.76249 5.40184	0.507652	6.97715	-1.01399e-005 -38.3535 0 -0	50.9329	-0	-1.12937e-005 -42.7176 0 -4.46327	-47.3127	-6.06067	0 -13.9965 -2.83857 -0	-47.9269	-0
-3.87123	100.306	54.3531	-1.57193	2.30623	1.29285	0 0 0 3.02264	-4.87778	-1.11292	-0.214371 12.3768 -1.12219 -0.625024	1.63363	-1.65932	-0.00137213 12.3873 0.296195 -2.53076	4.32024	-0.730953	0.0883157 12.5016 0.82912 -4.10647	-11.0235	-3.47131	-1 10.1794 0.943522 10.477	9.01537	-5.23843	0.667525 10.2797 -1.57149 3.34729	4.87647	-2.07209	0.0883157 12.5016 0.82912 -15	0	-0	20.61 4.45006 1.43784 10.4683	-2.08723	-166.318	0 -30.3438 0 -0	22.1992	-0	0 -18.964 0 1.30954e-014	-3.50485e-015	-119.967	0 -9.48199 0 1.22245	4.37968	-2.58917e-014	0 -3.17138 0 -0	7.12502	-0	0 -9.48199 0 25	15	-1.36605e-015	0.0883157 12.5016 0.82912 15	0	-0	-20.61 4.45 1.44 -12.046	-0.0474479	175.538	0 -29.5102 0 -0	28.4748	-0	0 -19.2342 0 8.6009e-016	-3.36604e-015	118.667	0 -9.61712 0 1.22	4.38	-0	0 -3.29215 0 -0	7.12502	-0	0 -9.61712 0 25	15	-7.97034e-015	-8.46272 -9.62775 4.76248 5.99507	-16.6907	-2.75559	1.00552e-005 -38.0331 0 -0	28.7656	-0	1.14428e-005 -43.2815 0 -18.5998	-73.7334	-19.319	0 -14.1868 -3.08763 -0	-22.2135	-0	9.10607 -9.62778 4.76249 5.6713	-0.400836	6.70553	-1.01399e-005 -38.3535 0 -0	51.96	-0	-1.12937e-005 -42.7176 0 -4.71549	-48.661	-6.26873	0 -13.9965 -2.83857 -0	-48.8577	-0
-3.94367	100.289	54.8025	-1.67565	2.23797	1.34778	0 0 0 3.14127	-4.8019	-1.06697	-0.214371 12.3768 -1.12219 -0.606974	1.65338	-1.60436	-0.00137213 12.3873 0.296195 -2.57103	4.29919	-0.700916	0.0883157 12.5016 0.82912 -4.16646	-10.9899	-3.51972	-1 10.1794 0.943522 10.5533	9.03173	-5.30573	0.667525 10.2797 -1.57149 3.37394	4.88392	-2.10295	0.0883157 12.5016 0.82912 -15	0	-0	20.61 4.45006 1.43784 10.5166	-2.08005	-166.318	0 -30.3438 0 -0	22.2916	-0	0 -18.964 0 1.30943e-014	-3.50666e-015	-119.984	0 -9.48199 0 1.22245	4.37968	-2.58917e-014	0 -3.17138 0 -0	7.12502	-0	0 -9.48199 0 25	15	-1.36605e-015	0.0883157 12.5016 0.82912 15	0	-0	-20.61 4.45 1.44 -12.1292	-0.275545	175.875	0 -29.5102 0 -0	28.6688	-0	0 -19.2342 0 8.43423e-016	-3.33538e-015	118.382	0 -9.61712 0 1.22	4.38	-0	0 -3.29215 0 -0	7.12502	-0	0 -9.61712 0 25	15	-7.97034e-015	-8.46272 -9.62775 4.76248 6.17336	-16.2938	-2.75889	1.00552e-005 -38.0331 0 -0	28.7173	-0	1.14428e-005 -43.2815 0 -19.1533	-73.9457	-19.8708	0 -14.1868 -3.08763 -0	-22.1741	-0	9.10607 -9.62778 4.76249 5.90832	-1.29555	6.43805	-1.01399e-005 -38.3535 0 -0	52.8659	-0	-1.12937e-005 -42.7176 0 -4.99785	-50.0866	-6.50363	0 -13.9965 -2.83857 -0	-49.7493	-0
